<svg viewBox="0 0 330 200" xmlns="http://www.w3.org/2000/svg"><g><g><g><g><g><line x1="51.5625" y1="177" x2="46.5625" y2="177" style="visibility: inherit;" fill="rgb(0, 0, 0)" stroke="rgb(204, 204, 204)" stroke-width="1px"></line><line x1="51.5625" y1="164.3571428571429" x2="46.5625" y2="164.3571428571429" style="visibility: inherit;" fill="rgb(0, 0, 0)" stroke="rgb(204, 204, 204)" stroke-width="1px"></line><line x1="51.5625" y1="151.7142857142857" x2="46.5625" y2="151.7142857142857" style="visibility: inherit;" fill="rgb(0, 0, 0)" stroke="rgb(204, 204, 204)" stroke-width="1px"></line><line x1="51.5625" y1="139.0714285714286" x2="46.5625" y2="139.0714285714286" style="visibility: inherit;" fill="rgb(0, 0, 0)" stroke="rgb(204, 204, 204)" stroke-width="1px"></line><line x1="51.5625" y1="126.42857142857139" x2="46.5625" y2="126.42857142857139" style="visibility: inherit;" fill="rgb(0, 0, 0)" stroke="rgb(204, 204, 204)" stroke-width="1px"></line><line x1="51.5625" y1="113.78571428571432" x2="46.5625" y2="113.78571428571432" style="visibility: inherit;" fill="rgb(0, 0, 0)" stroke="rgb(204, 204, 204)" stroke-width="1px"></line><line x1="51.5625" y1="101.14285714285721" x2="46.5625" y2="101.14285714285721" style="visibility: inherit;" fill="rgb(0, 0, 0)" stroke="rgb(204, 204, 204)" stroke-width="1px"></line><line x1="51.5625" y1="88.5" x2="46.5625" y2="88.5" style="visibility: inherit;" fill="rgb(0, 0, 0)" stroke="rgb(204, 204, 204)" stroke-width="1px"></line><line x1="51.5625" y1="75.8571428571429" x2="46.5625" y2="75.8571428571429" style="visibility: inherit;" fill="rgb(0, 0, 0)" stroke="rgb(204, 204, 204)" stroke-width="1px"></line><line x1="51.5625" y1="63.21428571428571" x2="46.5625" y2="63.21428571428571" style="visibility: inherit;" fill="rgb(0, 0, 0)" stroke="rgb(204, 204, 204)" stroke-width="1px"></line><line x1="51.5625" y1="50.571428571428605" x2="46.5625" y2="50.571428571428605" style="visibility: inherit;" fill="rgb(0, 0, 0)" stroke="rgb(204, 204, 204)" stroke-width="1px"></line><line x1="51.5625" y1="37.92857142857151" x2="46.5625" y2="37.92857142857151" style="visibility: inherit;" fill="rgb(0, 0, 0)" stroke="rgb(204, 204, 204)" stroke-width="1px"></line><line x1="51.5625" y1="25.285714285714295" x2="46.5625" y2="25.285714285714295" style="visibility: inherit;" fill="rgb(0, 0, 0)" stroke="rgb(204, 204, 204)" stroke-width="1px"></line><line x1="51.5625" y1="12.642857142857215" x2="46.5625" y2="12.642857142857215" style="visibility: inherit;" fill="rgb(0, 0, 0)" stroke="rgb(204, 204, 204)" stroke-width="1px"></line><line x1="51.5625" y1="0" x2="46.5625" y2="0" style="visibility: inherit;" fill="rgb(0, 0, 0)" stroke="rgb(204, 204, 204)" stroke-width="1px"></line></g><g transform="translate(41.5625, 0)"><text x="0" y="177" dx="0em" dy="0.3em" style="text-anchor: end; visibility: hidden; font-family: Roboto, sans-serif; font-size: 12px; font-weight: 200;" fill="rgb(33, 33, 33)" stroke="none" stroke-width="1px">3</text><text x="0" y="164.3571428571429" dx="0em" dy="0.3em" style="text-anchor: end; visibility: inherit; font-family: Roboto, sans-serif; font-size: 12px; font-weight: 200;" fill="rgb(33, 33, 33)" stroke="none" stroke-width="1px">3.05</text><text x="0" y="151.7142857142857" dx="0em" dy="0.3em" style="text-anchor: end; visibility: hidden; font-family: Roboto, sans-serif; font-size: 12px; font-weight: 200;" fill="rgb(33, 33, 33)" stroke="none" stroke-width="1px">3.1</text><text x="0" y="139.0714285714286" dx="0em" dy="0.3em" style="text-anchor: end; visibility: inherit; font-family: Roboto, sans-serif; font-size: 12px; font-weight: 200;" fill="rgb(33, 33, 33)" stroke="none" stroke-width="1px">3.15</text><text x="0" y="126.42857142857139" dx="0em" dy="0.3em" style="text-anchor: end; visibility: hidden; font-family: Roboto, sans-serif; font-size: 12px; font-weight: 200;" fill="rgb(33, 33, 33)" stroke="none" stroke-width="1px">3.2</text><text x="0" y="113.78571428571432" dx="0em" dy="0.3em" style="text-anchor: end; visibility: inherit; font-family: Roboto, sans-serif; font-size: 12px; font-weight: 200;" fill="rgb(33, 33, 33)" stroke="none" stroke-width="1px">3.25</text><text x="0" y="101.14285714285721" dx="0em" dy="0.3em" style="text-anchor: end; visibility: hidden; font-family: Roboto, sans-serif; font-size: 12px; font-weight: 200;" fill="rgb(33, 33, 33)" stroke="none" stroke-width="1px">3.3</text><text x="0" y="88.5" dx="0em" dy="0.3em" style="text-anchor: end; visibility: inherit; font-family: Roboto, sans-serif; font-size: 12px; font-weight: 200;" fill="rgb(33, 33, 33)" stroke="none" stroke-width="1px">3.35</text><text x="0" y="75.8571428571429" dx="0em" dy="0.3em" style="text-anchor: end; visibility: hidden; font-family: Roboto, sans-serif; font-size: 12px; font-weight: 200;" fill="rgb(33, 33, 33)" stroke="none" stroke-width="1px">3.4</text><text x="0" y="63.21428571428571" dx="0em" dy="0.3em" style="text-anchor: end; visibility: inherit; font-family: Roboto, sans-serif; font-size: 12px; font-weight: 200;" fill="rgb(33, 33, 33)" stroke="none" stroke-width="1px">3.45</text><text x="0" y="50.571428571428605" dx="0em" dy="0.3em" style="text-anchor: end; visibility: hidden; font-family: Roboto, sans-serif; font-size: 12px; font-weight: 200;" fill="rgb(33, 33, 33)" stroke="none" stroke-width="1px">3.5</text><text x="0" y="37.92857142857151" dx="0em" dy="0.3em" style="text-anchor: end; visibility: inherit; font-family: Roboto, sans-serif; font-size: 12px; font-weight: 200;" fill="rgb(33, 33, 33)" stroke="none" stroke-width="1px">3.55</text><text x="0" y="25.285714285714295" dx="0em" dy="0.3em" style="text-anchor: end; visibility: hidden; font-family: Roboto, sans-serif; font-size: 12px; font-weight: 200;" fill="rgb(33, 33, 33)" stroke="none" stroke-width="1px">3.6</text><text x="0" y="12.642857142857215" dx="0em" dy="0.3em" style="text-anchor: end; visibility: inherit; font-family: Roboto, sans-serif; font-size: 12px; font-weight: 200;" fill="rgb(33, 33, 33)" stroke="none" stroke-width="1px">3.65</text><text x="0" y="0" dx="0em" dy="0.3em" style="text-anchor: end; visibility: hidden; font-family: Roboto, sans-serif; font-size: 12px; font-weight: 200;" fill="rgb(33, 33, 33)" stroke="none" stroke-width="1px">3.7</text></g><line x1="51.5625" y1="0" x2="51.5625" y2="177" fill="rgb(0, 0, 0)" stroke="rgb(204, 204, 204)" stroke-width="1px"></line></g></g><g transform="translate(51, 0)" clip-path="url(#clip_0)"><clipPath id="clip_0"><rect width="278" height="177"></rect></clipPath><g><g><g><line x1="0" y1="0" x2="0" y2="177" fill="rgb(0, 0, 0)" stroke="rgb(66, 66, 66)" stroke-width="1px" opacity="0.25"></line><line x1="30.9375" y1="0" x2="30.9375" y2="177" fill="rgb(0, 0, 0)" stroke="rgb(66, 66, 66)" stroke-width="1px" opacity="0.25"></line><line x1="61.875" y1="0" x2="61.875" y2="177" fill="rgb(0, 0, 0)" stroke="rgb(66, 66, 66)" stroke-width="1px" opacity="0.25"></line><line x1="92.8125" y1="0" x2="92.8125" y2="177" fill="rgb(0, 0, 0)" stroke="rgb(66, 66, 66)" stroke-width="1px" opacity="0.25"></line><line x1="123.75" y1="0" x2="123.75" y2="177" fill="rgb(0, 0, 0)" stroke="rgb(66, 66, 66)" stroke-width="1px" opacity="0.25"></line><line x1="154.6875" y1="0" x2="154.6875" y2="177" fill="rgb(0, 0, 0)" stroke="rgb(66, 66, 66)" stroke-width="1px" opacity="0.25"></line><line x1="185.625" y1="0" x2="185.625" y2="177" fill="rgb(0, 0, 0)" stroke="rgb(66, 66, 66)" stroke-width="1px" opacity="0.25"></line><line x1="216.5625" y1="0" x2="216.5625" y2="177" fill="rgb(0, 0, 0)" stroke="rgb(66, 66, 66)" stroke-width="1px" opacity="0.25"></line><line x1="247.5" y1="0" x2="247.5" y2="177" fill="rgb(0, 0, 0)" stroke="rgb(66, 66, 66)" stroke-width="1px" opacity="0.25"></line><line x1="278.4375" y1="0" x2="278.4375" y2="177" fill="rgb(0, 0, 0)" stroke="rgb(66, 66, 66)" stroke-width="1px" opacity="0.25"></line></g><g><line x1="0" y1="177" x2="278.4375" y2="177" fill="rgb(0, 0, 0)" stroke="rgb(66, 66, 66)" stroke-width="1px" opacity="0.25"></line><line x1="0" y1="164.3571428571429" x2="278.4375" y2="164.3571428571429" fill="rgb(0, 0, 0)" stroke="rgb(66, 66, 66)" stroke-width="1px" opacity="0.25"></line><line x1="0" y1="151.7142857142857" x2="278.4375" y2="151.7142857142857" fill="rgb(0, 0, 0)" stroke="rgb(66, 66, 66)" stroke-width="1px" opacity="0.25"></line><line x1="0" y1="139.0714285714286" x2="278.4375" y2="139.0714285714286" fill="rgb(0, 0, 0)" stroke="rgb(66, 66, 66)" stroke-width="1px" opacity="0.25"></line><line x1="0" y1="126.42857142857139" x2="278.4375" y2="126.42857142857139" fill="rgb(0, 0, 0)" stroke="rgb(66, 66, 66)" stroke-width="1px" opacity="0.25"></line><line x1="0" y1="113.78571428571432" x2="278.4375" y2="113.78571428571432" fill="rgb(0, 0, 0)" stroke="rgb(66, 66, 66)" stroke-width="1px" opacity="0.25"></line><line x1="0" y1="101.14285714285721" x2="278.4375" y2="101.14285714285721" fill="rgb(0, 0, 0)" stroke="rgb(66, 66, 66)" stroke-width="1px" opacity="0.25"></line><line x1="0" y1="88.5" x2="278.4375" y2="88.5" fill="rgb(0, 0, 0)" stroke="rgb(66, 66, 66)" stroke-width="1px" opacity="0.25"></line><line x1="0" y1="75.8571428571429" x2="278.4375" y2="75.8571428571429" fill="rgb(0, 0, 0)" stroke="rgb(66, 66, 66)" stroke-width="1px" opacity="0.25"></line><line x1="0" y1="63.21428571428571" x2="278.4375" y2="63.21428571428571" fill="rgb(0, 0, 0)" stroke="rgb(66, 66, 66)" stroke-width="1px" opacity="0.25"></line><line x1="0" y1="50.571428571428605" x2="278.4375" y2="50.571428571428605" fill="rgb(0, 0, 0)" stroke="rgb(66, 66, 66)" stroke-width="1px" opacity="0.25"></line><line x1="0" y1="37.92857142857151" x2="278.4375" y2="37.92857142857151" fill="rgb(0, 0, 0)" stroke="rgb(66, 66, 66)" stroke-width="1px" opacity="0.25"></line><line x1="0" y1="25.285714285714295" x2="278.4375" y2="25.285714285714295" fill="rgb(0, 0, 0)" stroke="rgb(66, 66, 66)" stroke-width="1px" opacity="0.25"></line><line x1="0" y1="12.642857142857215" x2="278.4375" y2="12.642857142857215" fill="rgb(0, 0, 0)" stroke="rgb(66, 66, 66)" stroke-width="1px" opacity="0.25"></line><line x1="0" y1="0" x2="278.4375" y2="0" fill="rgb(0, 0, 0)" stroke="rgb(66, 66, 66)" stroke-width="1px" opacity="0.25"></line></g></g></g><g><g><line x1="0" y1="935.5714285714284" x2="278.4375" y2="935.5714285714284" fill="rgb(0, 0, 0)" stroke="rgb(153, 153, 153)" stroke-width="1.5px"></line></g></g><g><g><line x1="30.9375" y1="0" x2="30.9375" y2="177" fill="rgb(0, 0, 0)" stroke="rgb(153, 153, 153)" stroke-width="1.5px"></line></g></g><g><g><g><g><g><path stroke="rgb(0, 119, 187)" stroke-width="2px" d="M31.23140625,163.86220816203524L31.602656250000003,138.5793514251709L31.6490625,135.03092684064595L31.81921875,128.27873182296753L32.051249999999996,120.02783080509732L32.09765625,119.42732354572843L32.40703125,88.35178123201646L33.350625,73.14262819290163L33.397031250000005,72.03584044320245L33.53625,70.71974025453844L34.495312500000004,66.78765657969888L34.57265625,65.19562809807915L34.8975,63.46554504122056L34.974843750000005,62.039724622453996L35.083125,62.62443699155538L35.175937499999996,62.76996701104303L35.71734375,60.475729056767086L35.74828125,59.79425791331703L35.87203125,59.720528330121745L36.320625,60.53776318686352L36.63,59.86539520536153L37.4653125,60.03678785051621L37.48078125,60.299091543470134L37.790156249999995,59.929539339883014L38.06859375,59.52267020089288L38.28515625,58.63490091051377L39.24421875,59.49548128673012L39.661875,59.25843736103605L39.909375000000004,59.03411374773301L40.01765625,58.49063689368115L40.033125,58.7203862326486L40.54359375,57.21535021918164L40.76015625,56.6857993943351L40.88390625,56.46177721023564L40.96125,56.782980169568766L40.9921875,56.36724901199345L41.177812499999995,56.00185653141569L41.332499999999996,55.89888831547331L41.997656250000006,53.962085110800636L42.12140625,53.54972996030538L42.24515625,53.84531143733437L42.647343750000005,53.8888378143311L42.7865625,54.0007886205401L42.848437499999996,53.98969602584843L42.879374999999996,54.05926588603432L43.0959375,53.700806277138874L43.126875,53.902462414332824L43.235156249999996,53.4860078266689L43.358906250000004,53.35217326028009L43.45171875,53.25722306115289L43.88484375,53.23015471867155L45.014062499999994,53.09975644520353L45.52453125,52.99491936819897L45.5709375,52.98177705492295L45.833906250000005,52.78825950622563L45.973124999999996,52.57737963540216L45.98859375,52.451924800872845L46.08140625,52.28408902032037L46.096875000000004,52.34310885838102L46.17421875,52.06730113710679L46.45265625,52.047708238874186L46.4990625,52.07067714418687L46.638281250000006,51.17006696973531L47.39625,50.57396057673866L47.44265625,50.39943306786676L47.53546875,50.554126535143205L47.62828124999999,49.84281390053888L47.705625,50.25950963156567L47.8603125,50.831441402435345L47.953125,51.16916268212457L48.03046875,51.13449832371305L48.834843750000005,46.87530367715021L48.9121875,46.29782560893471L48.92765625,46.33484111513413L49.20609375,45.9575723239354L49.4071875,44.54959651402069L49.60828125,44.04349688121254L50.19609375,41.4244388171605L50.4590625,41.13126877376015L50.7684375,40.96795443126137L50.96953125,40.994661058698426L51.309843750000006,37.634026868002785L51.356249999999996,37.008561270577594L51.572812500000005,35.738640035901795L51.6346875,35.7467183385577L52.377187500000005,35.652491569519086L52.48546875,35.66750274385728L52.82578125,35.8432359695435L53.01140625,35.70536225182674L53.16609375,35.698730809348L53.630156250000006,35.645438126155355L53.8003125,35.94921847752167L53.9240625,35.885255200522316L54.016875,36.005826881953695L54.511874999999996,35.88869149344311L54.573750000000004,35.934930733272054L54.960468750000004,35.957477637699704L55.20796875,35.556817940303304L55.2234375,35.711330550057575L55.455468749999994,35.69710309164868L55.51734375,35.708014828818214L55.7803125,35.539515904017904L56.32171875,34.914653164999855L56.445468749999996,34.94768980571205L56.75484375,34.83031327383862L56.97140625,34.942625795091935L57.110625,34.838090147290956L57.20343750000001,34.64638117381508L57.28078125,34.654821191515275L57.3890625,34.622869695935975L57.52828125,34.55269697734291L57.74484375,34.711731025150875L57.775781249999994,34.86817278180806L57.8221875,34.988262176513715L57.96140625,35.590819154466935L58.5028125,35.670034749167336L58.8740625,35.55422564915253L59.19890625,36.623395034245114L59.47734375,36.66752426964901L59.6165625,36.705504349299886L59.81765625,36.578723226274796L59.864062499999996,36.68772002628876L59.9878125,36.607298714774025L60.6065625,36.84289578029091L60.86953125,36.84446321214951L61.02421875,36.84765836170746L61.070625,36.80997971126015L61.38,36.88401072365902L61.6275,37.0900677272252L61.9059375,37.372687748500326L62.0915625,37.45075791222713L62.35453125,37.66935437066219L62.447343749999995,37.627154282161214L62.818593750000005,38.049034595489545L63.019687499999996,38.846736839839416L63.06609375,38.88712835311894L63.081562500000004,38.95742164339341L63.205312500000005,38.875975472586525L63.2671875,38.94011960710801L63.375468749999996,39.02687093189789L64.1334375,39.46213470186509L64.1953125,39.49197619301935L64.30359375,39.61315073285787L64.4428125,39.63726506914414L64.783125,39.755847317831886L64.845,39.71991695676534L64.96875,39.45297125407631L65.0925,39.45984383991791L65.154375,39.43777922221596L65.46375,39.764227049691364L65.54109375,39.74101700101583L65.5565625,39.78647252491547L65.63390625,39.85779067448212L65.81953125,40.026530742645306L65.8659375,39.970284053257565L65.94328125,39.9811957904271L66.2371875,39.9780609267099L66.4846875,39.993614673614545L66.639375,39.88708959306992L66.825,39.806969710758786L67.2271875,39.64685051781793L67.36640625,39.67108542578564L67.90781249999999,39.423190048762756L67.92328125,39.427590915135006L67.95421875,39.42017575672699L68.63484375,39.42741005761285L68.75859375,39.4510421071734L68.8978125,39.456588404519245L68.92875,39.458638123103576L69.00609374999999,39.32576813016622L69.3928125,39.27066687175209L69.40828125,39.32154812131612L69.56296875,39.361276490347755L69.59390625,39.36477306910927L69.67125,39.41390602929254L69.8878125,39.32329641069688L69.980625,39.26747172219415L70.11984375,39.27699688502724L70.35187499999999,39.33191728591923L70.4446875,39.285798617771725L71.17171875,39.422406332833454L71.26453124999999,39.5029482160296L71.5275,39.39515713282997L71.62031250000001,39.52850941249306L72.37828125,39.93405226298744L72.4865625,39.842839785984616L72.56390625,39.91524308068414L72.76499999999999,39.97136919839044L73.33734375,40.32675422940938L73.55390625,40.7515885489328L74.0953125,40.476805686950726L75.37921874999999,40.9380526542664L75.51843749999999,40.93473693302704L75.65765624999999,40.90537772859849L75.75046875,40.981337887900246L76.12171875,41.038488864898724L76.84875000000001,40.823027270180866L76.9725,40.82965871265961L77.529375,37.26766981397359L77.776875,40.58459677015035L77.82328125000001,40.33320481436596L77.94703125,32.76305150985722L77.9934375,31.937979493822407L78.3646875,40.75568798610146L78.4265625,43.77257231303627L78.890625,45.62455333982198L79.4784375,42.45761755534584L79.756875,44.96767881938393L79.8496875,41.95085477828984L80.0971875,43.18550879614697L80.375625,41.21030351093842L80.39109375,41.26673105784828L80.91703125,37.930814061846085L81.07171875,37.973315579550636L81.118125,37.824650696345785L81.13359374999999,38.92884615489418L81.16453125,39.05876214163647L81.18,39.663489409855465L81.56671875,40.20419311523442L82.07718750000001,40.03087132317682L82.6959375,40.639698028564496L83.17546875,39.8312046187265L83.593125,40.40578896658764L83.67046875,40.191352231161964L84.01078125,41.2925333976746L84.3046875,39.85833324704854L84.53671875,39.88232701165338L84.78421875,39.72118295942037L85.2328125,39.4287363461086L85.27921875,39.3380061558315L85.6659375,39.23033564431329L86.068125,37.90754372732983L86.33109375,38.24622958047054L86.64046875,40.86239392416821L86.91890624999999,39.360673631940614L86.94984375,39.54388230187555L86.98078124999999,39.41499117442543L87.07359375,39.356031622205506L87.50671874999999,38.856382574353944L87.72328125,38.74485376902992L88.58953125,37.530998366219684L88.65140625,37.79269920076646L88.8215625,37.24747405733384L89.30109375,37.82850899015157L89.42484375,38.01437023707802L89.6259375,37.791915484837155L89.70328125,37.884876251220746L89.95078124999999,37.937927791050534L90.02812499999999,38.14760194505967L90.0590625,38.21017864772255L90.21375,38.39579875128613L90.275625,38.834739957537L90.72421874999999,40.883313110896545L90.90984375000001,40.95071268081669L91.71421875,42.05514928272797L91.884375,41.96520280838017L92.14734374999999,42.302984373910114L92.58046875000001,41.59987061364313L92.98265624999999,41.58377429417206L93.16828125,42.03139666148598L93.3384375,41.916310991559754L93.38484375,41.780908993312316L94.2665625,42.689235755375485L94.34390624999999,43.31458078111924L94.359375,43.285101005009274L94.5140625,43.384934357234435L95.64328125,44.6350215503148L95.81343749999999,44.62995753969468L95.82890625,44.75866780962266L95.85984375000001,44.83468825476513L95.93718750000001,44.77699470520024L95.95265624999999,44.89358752114435L96.33937499999999,44.97744512557988L96.41671875,44.76819297245575L96.463125,44.611088071550675L96.586875,44.55086251667572L96.89625,44.71532229014809L96.94265625,44.73624147687642L96.958125,44.68463679722382L97.19015625,44.57377113614766L97.53046875000001,44.37223557063515L97.7315625,44.20421893256054L97.7625,44.34215293611802L97.96359375,44.37470729010449L98.53593749999999,44.512641293661964L98.90718749999999,44.08400896617348L99.01546875,44.155568259102985L99.10828125,44.064054352896584L99.47953125000001,44.14459623609273L99.5259375,44.142003944941955L100.43859375,43.713009902409176L100.70156250000001,43.616673128945514L100.71703125,43.49803059441705L101.02640625000001,43.6485040528434L101.0728125,43.556990146637006L101.21203125,43.501346315656434L101.76890625,43.29390273775376L101.81531249999999,43.28449814660211L102.0628125,43.403080395289855L102.54234375,43.34647199085785L102.97546875,43.33791140147621L103.09921874999999,43.28805501120434L103.16109374999999,43.2536920819964L103.28484375000001,43.46264280591695L103.455,43.40241725104199L103.8571875,43.71246732984273L103.93453124999999,43.65513549532212L104.18203125,43.75466741834371L104.42953125,43.950777258191835L104.55328125,43.788126059940915L104.6925,43.87560081481938L104.83171875000001,44.0764129502433L105.001875,44.25286960601811L105.01734375,44.21265895026074L105.20296875000001,44.33232634408136L105.23390625,44.383087021963966L105.82171874999999,44.40617649895807L106.00734375,44.661487034388976L106.30125,44.77807985033311L106.65703124999999,44.92174100875859L106.96640624999999,44.64593328748433L107.70890625,45.14793348312382L107.848125,45.19682529994423L107.89453125,45.15118891852246L107.92546875000001,45.15106834684102L108.71437499999999,45.50090708051412L108.76078125000001,45.54678460529877L109.07015625000001,45.504705088479206L109.10109374999999,45.545820031847306L109.1165625,45.580182961055236L109.22484375,45.45515012741093L109.50328125,45.50820166724072L109.93640624999999,45.87775387082784L110.24578125,45.93050398145406L110.36953125000001,45.96305833544053L110.8490625,46.03509991509576L111.11203125,46.2512849399022L111.39046875,46.31591136114941L111.51421875000001,46.34906857354303L111.99374999999999,46.1736367770604L112.41140625,46.43208217620854L112.7671875,46.24622092928208L113.21578124999999,45.829223769051715L113.3859375,45.80848543984552L113.6334375,46.57152332578389L113.85000000000001,46.75244113377167L114.17484375000001,46.775470324925045L114.79359375,46.858905928475544L115.13390625,47.030901432037396L115.21125,47.06773608071466L115.78359375,47.04675660814561L115.95375,47.18191746303017L116.04656250000001,47.201932362147765L116.263125,47.29447112764634L116.29406250000001,47.27783223560883L116.7890625,47.10770559310917L117.16031249999999,47.24154015949799L117.3459375,47.27029650551935L117.376875,47.31725917543687L117.46968749999999,47.307070868355915L117.65531250000001,47.469541209084674L118.04203125000001,47.52717447280888L118.47515625,47.45754432678227L118.50609375,47.41456052235199L118.56796875,47.51945788519726L118.80000000000001,47.71309600557603L119.43421875,47.66969020026074L119.480625,47.68675109318329L120.30046875000001,47.84331342152191L120.346875,47.9386253356934L120.50156249999999,47.85965088435585L120.78,47.85711887904579L120.79546875,47.85314001355855L121.0584375,47.97931827817647L121.10484375,48.02851152420048L121.63078125,48.07390676225938L121.66171875,48.053047861371766L121.77000000000001,48.074328763144386L122.18765625,48.01223434720723L122.326875,48.04129212243219L122.65171875,48.19140386581425L123.02296875,48.201953887939496L123.1003125,48.201170172010194L123.193125,48.16475752421791L123.61078124999999,48.23480967112953L123.92015624999999,41.93662731988092L123.9975,66.48912109647482L124.22953125,59.86575692040582L124.30687499999999,50.0966172899519L124.97203124999999,80.18214552743096L125.03390625,77.7529275757926L125.35875,73.26741988318311L125.3896875,72.88918651853292L125.63718750000001,65.75248840876992L125.66812499999999,65.194181237902L125.7609375,65.05540323257448L125.791875,64.24926097052442L126.0703125,62.314989771161784L126.42609374999999,61.65986354010449L126.56531249999999,61.148519039154074L126.85921875000001,56.76139783859257L127.02937499999999,55.280355589730426L127.0603125,55.13476528440206L127.153125,56.25318820135937L127.35421875,56.675430229731994L127.63265625,57.232049397059875L128.2359375,56.38859019960679L128.59171874999998,55.11107294900079L128.65359375,55.416541303907145L128.6690625,55.48942688533241L128.77734375,55.76668146678383L129.0403125,56.16625601904736L129.21046875,56.010597978319474L129.380625,55.50528206144063L129.48890625,56.00505168097363L129.58171875,55.76348631722589L129.95296875,60.29022952488493L130.865625,59.2670582362584L131.42249999999999,59.46877465929307L131.43796875,59.48040982655119L131.49984375,58.97002989905224L131.80921875,57.94251802989418L131.8246875,57.4370815413339L131.84015625,56.875639506748776L131.96390625,56.30720431464062L132.64453125,54.61841705867226L132.7528125,54.69540207726617L132.79921875,54.3644930975778L133.093125,53.59138747623991L133.9284375,52.54645299911503L134.06765625,52.68770272391186L134.09859375,52.37096091679167L134.16046875,52.66702468054638L134.25328125000001,52.72230679648266L134.2996875,52.67389726638798L134.40796875,52.38741895130705L134.53171875,52.548683575221496L134.578125,52.17714193889076L134.76375,51.976450375148254L135.18140625,52.37674835750038L135.24328125,52.52330323628019L135.41343750000001,52.7497368540083L135.58359375,52.497983183179606L136.63546875,52.70397990090509L136.85203125,52.5190229415894L136.97578125,52.363304615020795L137.19234375,51.751825332641644L137.2078125,52.02305133002148L137.61,51.568134375980954L137.8265625,51.41428491047453L138.21328125,50.70273113250737L138.661875,49.187265668596574L138.70828125,49.10925579071049L139.11046875,48.592666421617814L139.38890625,47.78266586576192L139.45078125,47.841987133026166L139.8375,47.15955141612465L140.2396875,46.57809448242192L140.641875,46.604861395699665L140.87390625,46.524982656751405L140.99765625,46.17580706732617L141.013125,46.16387047086446L141.3534375,45.14262832914083L141.4153125,44.960987091064496L141.631875,44.815276214054684L142.25062499999999,43.91581147057672L142.38984375,43.92370891571049L142.57546875,43.59472908292501L142.869375,44.00931480952675L142.91578125,44.26118905203686L143.055,45.16559723445351L143.87484375,44.95405421938218L144.045,44.8211239406041L144.32343749999998,44.994385446820985L144.47812499999998,44.84885542733331L144.49359375,44.913421562739806L144.77203125,44.82383680343632L144.7875,44.77223212378369L145.14328124999997,44.50685385295326L145.20515625,44.4247445378985L145.4371875,44.39237104143418L145.90125,44.048380034310505L146.04046875,43.860047067914735L146.086875,43.59304107938497L146.19515625000003,43.343879699707074L146.34984375000002,43.0441384996687L146.39625,43.0457059315273L146.47359375000002,42.99000181470601L146.62828125000001,43.02671589170186L146.99953125,42.82108088902069L147.13875000000002,42.48028503145493L147.43265624999998,42.21424361637665L147.695625,41.266369342804L148.6546875,40.18080220903672L149.19609375000002,39.57914951869423L149.45906250000002,38.68209620884491L149.61375,38.73767975398476L149.69109375000002,38.50461469377793L149.86125,38.28107479640419L149.9540625,37.973315579550636L150.06234375,37.988387039729574L150.34078125,37.71511132376538L150.418125,37.641743455614396L150.49546875,37.6290834290641L150.77390624999998,37.49090828214376L150.9440625,37.528044360024616L150.99046875,37.64849546977455L151.29984375,38.52107272829331L151.42359374999998,38.32490260260449L151.57828125,38.130179337092855L151.76390625,37.98410674503876L152.1196875,37.929970060076066L152.19703125,37.87450708661763L153.140625,37.64240659986226L153.15609375,37.669233798980756L153.65109375,37.753935405186276L154.31625,38.70596940176831L154.44,38.74238204956059L154.56375,38.66817017963959L154.57921875,38.69728824070526L155.10515625,39.71973609924321L155.27531249999998,39.75144645145966L155.4609375,39.571915217808346L155.72390625,39.51428195408417L156.65203125,39.49022790363861L157.02328125,39.23714794431417L157.48734374999998,39.18240840094433L157.54921875,39.34391416822164L157.76578124999997,39.974202632904095L158.02875,40.01067556653707L158.1215625,39.9607588904245L158.77124999999998,39.72070067269464L159.01875,39.89426360811509L159.18890625,39.80636685235162L159.328125,39.734144415174256L159.451875,39.69375290189473L159.76125000000002,39.22641706466679L159.7921875,39.234435081481976L159.83859375,39.125860282353024L159.86953125000002,39.08794048854286L159.96234375,39.06310272216801L160.27171875,38.82762622833256L160.318125,38.811288765498595L160.39546875,38.77620240620209L160.53468750000002,38.838176250457806L161.6175,38.88091891152521L161.92687500000002,38.62958724158154L161.94234375,38.56158481325425L161.97328125,38.64857728140698L162.18984375,38.53198446546285L162.25171875,38.49738039289205L162.3909375,38.35528666632519L162.40640625,38.343108926500626L162.48375000000001,38.440108844212155L162.56109375,38.40779563358856L162.793125,38.514561857496034L163.27265624999998,38.53861590794159L163.45828125,38.456566878727536L163.5665625,38.377110140664264L163.64390625000001,38.427750246865436L163.86046875,38.35781867163525L163.9996875,38.36499268668042L164.401875,38.530417033604245L164.51015625,38.52077129908974L164.52562500000002,38.46808147430424L164.66484375,38.618796076093446L165.25265625,38.7401514734541L165.37640625,38.77330868584772L165.391875,38.75841808319096L165.45374999999999,38.88254662922455L165.94875,39.100178514208146L166.67578125,39.14093174253194L166.73765625,39.22587449210034L167.01609375,39.35175132751469L167.09343750000002,39.33866930007939L167.37187500000002,39.446580954960446L167.41828125,39.47792959213261L167.743125,39.4856461797442L167.91328125,39.57052864347188L168.28453125,39.76844705854146L168.3928125,39.684529168265236L168.65578125000002,39.85887581961499L168.68671875,39.90632077625824L168.733125,39.8600815364293L169.05796875,39.90011133466451L169.08890625,39.97468491962982L169.16625,40.10773577008931L169.33640624999998,40.55813128607617L169.52203125,40.70661531175889L169.785,40.74911682946344L170.0634375,40.767564296722455L170.15625,40.83219071796967L170.3109375,17.17035995210923L170.58937500000002,45.916638238089455L170.60484375,47.90528726577763L171.0225,48.497475079127746L171.14625,45.22974136897499L171.3009375,45.40957403182988L171.47109375,45.32758528845654L171.7959375,49.38862037658696L172.074375,46.860774789537736L172.569375,44.598548616681825L172.67765624999998,43.50544575282509L173.48203125,40.62866571971352L173.51296875,40.79191977637158L173.66765625,40.14215898513798L173.7759375,40.127509525844054L174.19359375,36.68585116522656L174.5184375,37.437133312225384L174.673125,38.04059457778935L174.920625,39.021565777914894L174.9515625,38.92245585577832L175.05984375,38.89044407435829L175.55484374999997,37.77569859368465L175.6321875,36.75198473249166L175.80234375,39.48227017266412L175.87968750000002,41.44409200123383L176.54484375,42.65215996333534L176.59125,42.57987724031724L176.900625,42.204356738499264L176.9934375,42.763688768659364L177.00890625,42.87853329522272L177.41109375,44.19372919627602L177.519375,44.743958064488034L178.49390625,46.04372079031811L178.633125,46.690587861197365L178.74140624999998,47.02439056124009L178.7878125,46.7741440364293L178.89609374999998,46.7452671187265L178.94250000000002,46.75780657359535L179.28281249999998,46.22753231866022L179.45296875,46.96259757450653L179.623125,47.059115205492326L179.80875,47.604882921491395L179.82421875,47.534227916172604L179.87062500000002,47.639728137425045L180.241875,47.21453210285736L180.33468749999997,46.990871633802186L180.69046875,46.08272572926117L180.84515625,46.82189042227612L180.96890625,47.71158885955815L181.9125,44.94428791318624L182.05171875000002,44.387909889221234L182.1909375,44.57805143083848L182.73234374999998,42.857131821768654L183.16546875,41.57340512956895L183.21187500000002,41.38446930476601L183.83062500000003,43.433585030691994L184.201875,43.04606764657159L184.3565625,42.92603853770668L185.20734375,43.75894771303452L185.4084375,43.52142150061474L185.85703125,43.625233718327145L186.41390625,44.186193466186566L186.49125,44.322861467089005L186.50671874999998,44.30646371841435L186.53765625,44.223751544952435L186.75421875,44.13211706706459L186.93984375000002,44.09232841219224L187.295625,44.325755187443356L187.3884375,44.859948022025L187.62046875,46.08459459032334L187.71328125,45.94280229296006L187.86796875,45.86099440710888L188.23921875,45.68080002920971L188.50218750000002,45.46274614334111L188.84249999999997,46.00833300181801L189.32203125,46.03998306819374L189.4303125,46.19413396290375L189.60046875,46.029252188546344L189.84796874999998,45.89372961861749L189.90984375,45.7530224663871L190.018125,45.763331345149474L190.09546875,45.54533774512158L190.74515624999998,45.06280987603326L191.30203125,44.399183341435055L191.73515625,44.57919686181207L191.76609375,44.61663436889653L191.7815625,44.623989241463825L191.8125,44.546401364462746L191.90531249999998,44.69223281315399L192.04453125,44.591012886592345L192.13734374999999,44.71212714059015L192.2146875,44.779406138828854L192.66328125,44.01474053519116L192.87984375,43.527992657252746L193.05,43.4920020103455L193.2046875,43.11853122711186L193.2665625,42.71063722882955L193.28203125000002,42.7381275721959L193.71515625,41.96315308979584L193.85437499999998,41.41871166229252L193.978125,41.193242618015866L194.21015625,41.3625252587455L194.225625,41.324183464050336L194.41125,40.87812852859501L194.89078125,39.96057803290234L195.03,39.809501716068844L195.23109375,39.77314935411729L195.29296875,39.71762609481816L195.3703125,39.810104574476014L195.50953125,39.395699705396424L195.63328124999998,39.379844529288185L195.7415625,39.363808495657814L195.75703124999998,39.39461456026353L196.01999999999998,38.997752870832215L196.4840625,38.563755103520016L196.63875,38.42708710261757L197.21109375,38.92613329206197L197.35031249999997,38.8885752132961L197.36578125,38.88459634780888L197.45859374999998,38.86729431152348L197.70609375,38.9650779451643L197.81437499999998,38.87067031860356L198.2475,39.157570634569474L198.26296875,39.14659861155922L198.40218750000003,39.22147362572809L198.47953125,39.31009381158014L198.6496875,39.22219705581669L198.78890625000003,39.21429961068292L199.00546875,39.27705717086796L199.17562500000003,39.47587987354828L199.59328125,39.77429478509088L199.63968749999998,39.82342774527417L199.77890625,39.7816496576582L200.165625,39.8558615275792L200.22750000000002,39.82999890191217L200.36671875,39.987586089542965L200.58328125,40.6113033975874L200.67609375,41.044517448970275L200.70703125,41.020764827728314L201.23296875000003,41.13102763039728L201.32578125,41.12680762154718L201.41859374999999,41.251599311828656L201.44953125,41.305856568472755L201.46499999999997,41.27529164722992L201.6196875,41.172202859606095L201.69703124999998,41.160869121551556L201.91359375,41.4713412012373L202.05281250000002,41.46495090212144L202.3003125,41.6588904517038L202.68703125,41.79374987738476L202.98093749999998,41.84445026942665L203.12015625,41.97273853846962L203.39859375,42.025970935821576L203.81625,41.9307795933315L204.17203125,42.02211264201576L204.20296875,42.023318358830075L204.2184375,41.98853342873712L205.00734375000002,41.600714615413146L205.13109375,41.44258485521592L205.1775,41.481891223362545L205.31671875,41.56424168178017L205.90453125000002,41.416842801230324L206.3840625,41.55441508974351L206.6934375,41.42226852689473L206.91,41.36144011361261L206.98734375,41.3417869295393L207.466875,41.02582883834843L207.590625,40.86781964983262L207.6215625,40.8446698869978L208.14749999999998,40.555056708199665L208.19390625,40.6178745542254L208.41046875,41.20879636492051L208.456875,41.21518666403637L208.62703125000002,41.09286669322426L208.71984375,41.038247721535846L209.15296874999999,40.85377304894586L209.199375,40.87161765779771L209.21484375,40.86781964983262L209.30765624999998,40.92364433833534L209.33859375,40.89090912682672L209.6015625,40.91182831355507L209.7253125,40.9534858294896L209.86453125,40.872642517089886L210.0965625,40.936063221522765L210.3440625,40.788001196725055L210.94734375000002,40.48723513739453L211.13296875,40.570911884307904L211.16390625,40.55849300112046L211.31859375,40.416399274553605L211.48874999999998,40.382639203752824L211.59703125,40.376068047114806L211.7053125,40.23692832674302L211.73625,40.30149446214951L211.99921875,40.275812694004635L212.293125,40.15662758690973L212.85000000000002,40.296008450644386L213.00468750000002,40.19846596036641L213.26765625,40.21209056036816L213.36046875,40.240967478070985L213.4996875,40.34972313472206L213.96375,40.614498547145324L214.31953124999998,40.60443081174581L214.335,40.58972106661118L214.6134375,40.69244813919072L215.0465625,40.85033675602509L215.12390625,40.92454862594609L215.325,40.99345534188409L215.5415625,41.05084746224542L215.6653125,41.0369214330401L215.74265625,41.156528541020016L215.77359375,41.17853287288124L215.7890625,41.16635513305668L216.0984375,41.737201758793454L216.17578125,41.85276971544541L216.39234375,41.9249921526228L216.54703125,41.98732771192281L216.62437500000001,98.18856157575338L216.73265625000002,41.06212091445927L217.0265625,68.65796450206216L217.2121875,57.532996313912555L217.75359375,59.65409333365307L217.8928125,57.67852633340021L218.63531250000003,56.105065890720944L218.71265624999998,56.40872567040582L218.9446875,58.21217659541542L219.11484375,57.03196069172453L219.17671875,56.344219820840046L219.42421875,56.777614729745075L219.6253125,58.13567386354722L219.9346875,56.863522052764935L220.07390625000002,57.25652544839044L220.19765625000002,57.17990214484082L220.50703125,58.4631465503148L220.75453124999999,58.10106979097642L221.06390625,60.958317211696105L221.1103125,61.511258942740334L221.35781250000002,63.54662949698315L221.6053125,63.17388214383809L221.77546875,62.70196458271574L222.70359374999998,62.86178234645302L222.8428125,62.84773574556626L222.85828125,62.7606227057321L223.32234375,59.88070780890332L223.61625,60.70234353201733L223.66265625,60.38982173374723L224.00296875,60.8744596072606L224.68359375,60.27027491160805L225.0084375,60.241699423108805L225.10125,60.10117312840055L225.13218750000001,60.408208915165524L225.45703125,59.538706234523254L225.79734375,59.71281174251015L226.2459375,59.58181061063497L226.9575,59.72396462304254L227.20499999999998,59.11393220084057L227.390625,59.38154104777748L228.30328125,58.49702719279701L228.55078125,58.737025124686134L229.0303125,59.049848352159806L229.15406249999998,58.54664243970601L229.47890625000002,58.370547498975505L229.86562500000002,58.11282552991597L229.94296875,58.21856689453129L230.14406250000002,58.53211355209355L230.34515625,58.458323683057536L230.43796874999998,58.28445931843351L231.08765625,57.75376306261338L231.10312499999998,57.8775901794434L231.18046875,58.103240081242184L231.4125,58.15243332726617L232.30968750000002,57.96771751131333L232.57265625,58.227911199842204L232.9903125,58.22381176267354L233.00578124999998,58.27704416002549L233.12953125,58.382845810481506L233.31515625,57.71783270154683L233.36156250000002,57.531308310372516L233.50078125,57.87801218032841L233.7328125,57.96608979361401L233.7946875,57.90309109006612L233.82562499999997,58.052539689200295L234.05765624999998,58.158461911337746L234.33609375,58.00533587591992L234.61453125,57.88699477059503L234.8465625,57.806814602443175L235.00125,57.93829802104408L235.04765625,58.012509890965084L235.23328125,58.144716739654584L235.24875,58.081476892743815L235.31062500000002,58.00177901131769L235.74375,57.87306874138971L236.1459375,57.72289671216695L236.65640624999997,58.05989456176762L236.88843749999998,57.94975233078007L237.4453125,57.953068052019425L237.52265625,58.10342093876432L238.26515625000002,57.7350141661508L238.32703124999998,57.60437474931992L238.63640625,57.72916643960138L239.37890625000003,57.57567868913926L239.394375,57.6077507564L239.7965625,57.61281476702012L239.84296874999998,57.5516246386937L240.49265624999998,57.59689930507118L240.74015625,57.50176824842183L241.28156249999998,57.621254784720314L241.51359374999998,57.68485634667535L241.63734375,57.706981250218014L241.7146875,57.688835212162594L241.73015625,57.64241511481152L242.240625,57.46234130859379L242.50359375,57.60093845639913L242.54999999999998,57.729226725442096L242.59640625,57.63367366790776L242.79749999999999,57.69082464490621L243.21515625,57.4743381908962L243.49359375,57.249170575823136L243.601875,57.43931211744039L243.71015625,57.50267253603257L244.05046875,57.48621450151719L244.3753125,57.51744256700791L244.57640625,57.35937309265141L245.11781249999999,57.38987772805353L245.47359375,57.31831843512402L245.52,57.43798582894464L245.72109375,57.37896599088399L245.78296874999998,57.351174218314064L245.87578125000002,57.432861532483805L246.5409375,58.32979427065171L246.55640624999998,58.298385347638835L246.8503125,58.3005556379046L246.89671875,58.179320812225384L247.02046875,58.18962969098775L247.03593750000002,58.31309509277348L247.05140625,58.330517700740295L247.14421875,58.351858888353654L247.45359374999998,58.32985455649243L247.48453125,58.3335922786168L247.76296875,58.39490297862465L248.53640625,57.99629299981256L248.75296875,58.20675086975102L248.84578125,58.12542527062555L249.37171875,58.215854031699074L250.0059375,57.97459009715492L250.4390625,58.16696221487866L250.85671875,58.07617173876084L250.9340625,58.18112938744684L251.026875,58.14103930337091L251.38265625000003,58.94820642471318L251.769375,58.882133143288776L251.95499999999998,58.85964652470182L251.97046875,58.824801308768166L252.06328125,58.889910016741105L252.20250000000001,58.9560435840062L252.46546874999999,58.92795038223271L252.65109375,58.918244361877484L252.74390625,58.8637459618705L253.05328125000003,58.873813697270016L253.11515624999998,58.863203389304054L253.48640625000002,58.55025959014897L253.51734374999998,58.53585127421791L253.6565625,58.70013019016813L254.43,58.69355903353013L254.80125,58.67728185653691L254.81671875,58.713212217603434L255.15703125000002,58.50637149810795L255.6984375,58.58510480608262L255.71390625,58.56032732554848L256.08515625,58.46103654588975L256.11609375,58.52723039899556L256.1315625,58.54417072023667L256.595625,59.18301977430074L256.98234375,59.12068421500073L257.02875,59.094459874289406L257.0596875,59.07396268844609L257.29171875,59.12544679641728L257.38453125,59.07100868225102L257.69390625,59.13298252650673L257.84859374999996,59.063593523842975L257.8640625,59.12797880172734L257.9878125,59.14787312916349L258.0496875,59.15311799730576L258.1425,59.106577328273254L258.39,58.963458742414225L259.05515625000004,58.967075892857174L259.24078125,58.93819897515436L259.4109375,58.93982669285368L259.565625,58.95586272648405L259.58109375,58.93235124860494L259.64296875,58.862540245056195L259.70484375,58.83746133531846L259.76671875,58.832276753016906L260.0296875,58.78332465035577L260.1225,58.839812483106364L260.184375,58.858621665409665L260.2153125,58.88038485390802L260.60203125,58.8622388158526L260.8959375,58.76192317690171L261.00421875,58.846323353903664L261.0196875,58.817627293723L261.2671875,58.59987483705796L261.31359375,58.60162312643872L261.80859375,58.65744781494145L261.8240625,58.67836700166978L261.83953125,58.65057522909985L262.21078125,58.639784063611735L262.42734375,58.52120181492399L262.96875,58.61283629281183" style="fill: none;" fill="none"></path></g></g></g></g></g></g><g transform="translate(51, 177)" clip-path="url(#clip_1)"><clipPath id="clip_1"><rect width="278" height="23"></rect></clipPath><g><g><line x1="0" y1="0" x2="0" y2="5" style="visibility: inherit;" fill="rgb(0, 0, 0)" stroke="rgb(204, 204, 204)" stroke-width="1px"></line><line x1="30.9375" y1="0" x2="30.9375" y2="5" style="visibility: inherit;" fill="rgb(0, 0, 0)" stroke="rgb(204, 204, 204)" stroke-width="1px"></line><line x1="61.875" y1="0" x2="61.875" y2="5" style="visibility: inherit;" fill="rgb(0, 0, 0)" stroke="rgb(204, 204, 204)" stroke-width="1px"></line><line x1="92.8125" y1="0" x2="92.8125" y2="5" style="visibility: inherit;" fill="rgb(0, 0, 0)" stroke="rgb(204, 204, 204)" stroke-width="1px"></line><line x1="123.75" y1="0" x2="123.75" y2="5" style="visibility: inherit;" fill="rgb(0, 0, 0)" stroke="rgb(204, 204, 204)" stroke-width="1px"></line><line x1="154.6875" y1="0" x2="154.6875" y2="5" style="visibility: inherit;" fill="rgb(0, 0, 0)" stroke="rgb(204, 204, 204)" stroke-width="1px"></line><line x1="185.625" y1="0" x2="185.625" y2="5" style="visibility: inherit;" fill="rgb(0, 0, 0)" stroke="rgb(204, 204, 204)" stroke-width="1px"></line><line x1="216.5625" y1="0" x2="216.5625" y2="5" style="visibility: inherit;" fill="rgb(0, 0, 0)" stroke="rgb(204, 204, 204)" stroke-width="1px"></line><line x1="247.5" y1="0" x2="247.5" y2="5" style="visibility: inherit;" fill="rgb(0, 0, 0)" stroke="rgb(204, 204, 204)" stroke-width="1px"></line><line x1="278.4375" y1="0" x2="278.4375" y2="5" style="visibility: inherit;" fill="rgb(0, 0, 0)" stroke="rgb(204, 204, 204)" stroke-width="1px"></line></g><g transform="translate(0, 8)"><text x="0" y="0" dx="0em" dy="0.95em" style="text-anchor: middle; visibility: hidden; font-family: Roboto, sans-serif; font-size: 12px; font-weight: 200;" fill="rgb(33, 33, 33)" stroke="none" stroke-width="1px">-2k</text><text x="30.9375" y="0" dx="0em" dy="0.95em" style="text-anchor: middle; visibility: inherit; font-family: Roboto, sans-serif; font-size: 12px; font-weight: 200;" fill="rgb(33, 33, 33)" stroke="none" stroke-width="1px">0</text><text x="61.875" y="0" dx="0em" dy="0.95em" style="text-anchor: middle; visibility: inherit; font-family: Roboto, sans-serif; font-size: 12px; font-weight: 200;" fill="rgb(33, 33, 33)" stroke="none" stroke-width="1px">2k</text><text x="92.8125" y="0" dx="0em" dy="0.95em" style="text-anchor: middle; visibility: inherit; font-family: Roboto, sans-serif; font-size: 12px; font-weight: 200;" fill="rgb(33, 33, 33)" stroke="none" stroke-width="1px">4k</text><text x="123.75" y="0" dx="0em" dy="0.95em" style="text-anchor: middle; visibility: inherit; font-family: Roboto, sans-serif; font-size: 12px; font-weight: 200;" fill="rgb(33, 33, 33)" stroke="none" stroke-width="1px">6k</text><text x="154.6875" y="0" dx="0em" dy="0.95em" style="text-anchor: middle; visibility: inherit; font-family: Roboto, sans-serif; font-size: 12px; font-weight: 200;" fill="rgb(33, 33, 33)" stroke="none" stroke-width="1px">8k</text><text x="185.625" y="0" dx="0em" dy="0.95em" style="text-anchor: middle; visibility: inherit; font-family: Roboto, sans-serif; font-size: 12px; font-weight: 200;" fill="rgb(33, 33, 33)" stroke="none" stroke-width="1px">10k</text><text x="216.5625" y="0" dx="0em" dy="0.95em" style="text-anchor: middle; visibility: inherit; font-family: Roboto, sans-serif; font-size: 12px; font-weight: 200;" fill="rgb(33, 33, 33)" stroke="none" stroke-width="1px">12k</text><text x="247.5" y="0" dx="0em" dy="0.95em" style="text-anchor: middle; visibility: inherit; font-family: Roboto, sans-serif; font-size: 12px; font-weight: 200;" fill="rgb(33, 33, 33)" stroke="none" stroke-width="1px">14k</text><text x="278.4375" y="0" dx="0em" dy="0.95em" style="text-anchor: middle; visibility: hidden; font-family: Roboto, sans-serif; font-size: 12px; font-weight: 200;" fill="rgb(33, 33, 33)" stroke="none" stroke-width="1px">16k</text></g><line x1="0" y1="0" x2="278.4375" y2="0" fill="rgb(0, 0, 0)" stroke="rgb(204, 204, 204)" stroke-width="1px"></line></g></g></g></g></svg>